<svg xmlns="http://www.w3.org/2000/svg" width="35.49" height="36.377" viewBox="0 0 35.49 36.377"><g transform="translate(-1370.51 -1267.536)"><g transform="translate(1370.51 1287.943)" fill="#0abf8c"><path d="M 21.88068389892578 13.97055530548096 L 2.075131177902222 13.97055530548096 C 2.193310260772705 12.66179180145264 2.450530052185059 11.39067363739014 2.844062805175781 10.1749153137207 C 3.377262830734253 8.527874946594238 4.135092735290527 7.055805206298828 5.09647274017334 5.799655437469482 C 6.027622699737549 4.582885265350342 7.099692821502686 3.634365320205688 8.282973289489746 2.98036527633667 C 9.460002899169922 2.32985520362854 10.70311260223389 2.00000524520874 11.97773265838623 2.00000524520874 C 13.25237274169922 2.00000524520874 14.49557304382324 2.329865217208862 15.67277336120605 2.980425357818604 C 16.85591316223145 3.634325265884399 17.92800331115723 4.582855224609375 18.85919380187988 5.799605369567871 C 19.82075309753418 7.056015491485596 20.57860374450684 8.528085708618164 21.11171340942383 10.17495536804199 C 21.5052661895752 11.39076232910156 21.76249694824219 12.66182518005371 21.88068389892578 13.97055530548096 Z" stroke="none"/><path d="M 19.53766441345215 11.97055530548096 C 19.44375991821289 11.57120990753174 19.33413124084473 11.17768859863281 19.20893287658691 10.7909049987793 C 18.74601364135742 9.360885620117188 18.09399223327637 8.090535163879395 17.27093315124512 7.015105247497559 C 16.50857353210449 6.018945217132568 15.64535331726074 5.25039529800415 14.70541286468506 4.730905055999756 C 13.81544303894043 4.23908519744873 12.92321300506592 4.00000524520874 11.97773265838623 4.00000524520874 C 11.03230285644531 4.00000524520874 10.14017295837402 4.239065170288086 9.250442504882812 4.730795383453369 C 8.310293197631836 5.250415325164795 7.44709300994873 6.018945217132568 6.68470287322998 7.015205383300781 C 5.861833095550537 8.090354919433594 5.209842681884766 9.360705375671387 4.746862888336182 10.7908353805542 C 4.621636867523193 11.17770195007324 4.512035846710205 11.57111358642578 4.41811990737915 11.97055530548096 L 19.53766441345215 11.97055530548096 M 23.9533519744873 15.97055530548096 L 0.00241290288977325 15.97055530548096 C 0.0007829028181731701 15.86011505126953 2.902831965911901e-06 15.75270557403564 2.902831965911901e-06 15.65109539031982 C 2.902831965911901e-06 13.53825569152832 0.3166728913784027 11.48858547210693 0.9412629008293152 9.558995246887207 C 1.544632911682129 7.695195198059082 2.408232927322388 6.021395206451416 3.508252859115601 4.584115505218506 C 4.608202934265137 3.146765232086182 5.889173030853271 2.018275260925293 7.315503120422363 1.22993528842926 C 8.792182922363281 0.4138152599334717 10.36075305938721 5.268554559734184e-06 11.97773265838623 5.268554559734184e-06 C 13.59472274780273 5.268554559734184e-06 15.16334247589111 0.4138152599334717 16.6401424407959 1.22993528842926 C 18.06647300720215 2.018245220184326 19.34744262695312 3.146755218505859 20.44745254516602 4.584115505218506 C 21.54753303527832 6.021515369415283 22.41120338439941 7.695305347442627 23.01450347900391 9.558995246887207 C 23.63909339904785 11.48856544494629 23.9558219909668 13.53824520111084 23.9558219909668 15.65109539031982 C 23.9558219909668 15.75626564025879 23.95498275756836 15.86367511749268 23.9533519744873 15.97033500671387 L 23.9533519744873 15.97055530548096 Z" stroke="none" fill="#0abf8c"/></g><g transform="translate(1382.044 1287.943)" fill="#0abf8c"><path d="M 21.88068389892578 13.97055530548096 L 2.075131177902222 13.97055530548096 C 2.193310260772705 12.66179180145264 2.450530052185059 11.39067363739014 2.844062805175781 10.1749153137207 C 3.377262830734253 8.527874946594238 4.135092735290527 7.055805206298828 5.09647274017334 5.799655437469482 C 6.027622699737549 4.582885265350342 7.099692821502686 3.634365320205688 8.282973289489746 2.98036527633667 C 9.460002899169922 2.32985520362854 10.70311260223389 2.00000524520874 11.97773265838623 2.00000524520874 C 13.25237274169922 2.00000524520874 14.49557304382324 2.329865217208862 15.67277336120605 2.980425357818604 C 16.85591316223145 3.634325265884399 17.92800331115723 4.582855224609375 18.85919380187988 5.799605369567871 C 19.82075309753418 7.056015491485596 20.57860374450684 8.528085708618164 21.11171340942383 10.17495536804199 C 21.5052661895752 11.39076232910156 21.76249694824219 12.66182518005371 21.88068389892578 13.97055530548096 Z" stroke="none"/><path d="M 19.53766441345215 11.97055530548096 C 19.44375991821289 11.57120990753174 19.33413124084473 11.17768859863281 19.20893287658691 10.7909049987793 C 18.74601364135742 9.360885620117188 18.09399223327637 8.090535163879395 17.27093315124512 7.015105247497559 C 16.50857353210449 6.018945217132568 15.64535331726074 5.25039529800415 14.70541286468506 4.730905055999756 C 13.81544303894043 4.23908519744873 12.92321300506592 4.00000524520874 11.97773265838623 4.00000524520874 C 11.03230285644531 4.00000524520874 10.14017295837402 4.239065170288086 9.250442504882812 4.730795383453369 C 8.310293197631836 5.250415325164795 7.44709300994873 6.018945217132568 6.68470287322998 7.015205383300781 C 5.861833095550537 8.090354919433594 5.209842681884766 9.360705375671387 4.746862888336182 10.7908353805542 C 4.621636867523193 11.17770195007324 4.512035846710205 11.57111358642578 4.41811990737915 11.97055530548096 L 19.53766441345215 11.97055530548096 M 23.9533519744873 15.97055530548096 L 0.00241290288977325 15.97055530548096 C 0.0007829028181731701 15.86011505126953 2.902831965911901e-06 15.75270557403564 2.902831965911901e-06 15.65109539031982 C 2.902831965911901e-06 13.53825569152832 0.3166728913784027 11.48858547210693 0.9412629008293152 9.558995246887207 C 1.544632911682129 7.695195198059082 2.408232927322388 6.021395206451416 3.508252859115601 4.584115505218506 C 4.608202934265137 3.146765232086182 5.889173030853271 2.018275260925293 7.315503120422363 1.22993528842926 C 8.792182922363281 0.4138152599334717 10.36075305938721 5.268554559734184e-06 11.97773265838623 5.268554559734184e-06 C 13.59472274780273 5.268554559734184e-06 15.16334247589111 0.4138152599334717 16.6401424407959 1.22993528842926 C 18.06647300720215 2.018245220184326 19.34744262695312 3.146755218505859 20.44745254516602 4.584115505218506 C 21.54753303527832 6.021515369415283 22.41120338439941 7.695305347442627 23.01450347900391 9.558995246887207 C 23.63909339904785 11.48856544494629 23.9558219909668 13.53824520111084 23.9558219909668 15.65109539031982 C 23.9558219909668 15.75626564025879 23.95498275756836 15.86367511749268 23.9533519744873 15.97033500671387 L 23.9533519744873 15.97055530548096 Z" stroke="none" fill="#0abf8c"/></g><g transform="translate(1376 1267.536)" fill="#0abf8c" stroke="#fff" stroke-width="4"><circle cx="13" cy="13" r="13" stroke="none"/><circle cx="13" cy="13" r="11" fill="none"/></g></g></svg>