<svg xmlns="http://www.w3.org/2000/svg" width="32" height="32" viewBox="0 0 32 32"><path d="M32.609,8.957H26.9A5.458,5.458,0,0,0,29.13,4.991,3.276,3.276,0,0,0,25.652,2C22.243,2,19.461,5.27,18,7.565,16.47,5.27,13.757,2,10.348,2,7.983,2,6.87,3.461,6.87,4.991S7.565,7.7,9.1,8.957h-5.7A1.391,1.391,0,0,0,2,10.348v5.565A1.391,1.391,0,0,0,3.391,17.3H4.783v15.3A1.391,1.391,0,0,0,6.174,34H29.826a1.391,1.391,0,0,0,1.391-1.391V17.3h1.391A1.391,1.391,0,0,0,34,15.913V10.348A1.391,1.391,0,0,0,32.609,8.957ZM25.652,4.783c.139,0,.7,0,.7.209s-1.67,2.922-5.7,3.687C21.9,6.87,23.843,4.783,25.652,4.783Zm-15.3,0c1.878,0,3.757,2.087,5.078,3.9-4.035-.765-5.7-2.783-5.7-3.687S10.139,4.783,10.348,4.783ZM4.783,11.739H16.609v2.783H4.783ZM7.565,17.3h9.043V31.217H7.565Zm20.87,13.913H19.391V17.3h9.043Zm2.783-16.7H19.391V11.739H31.217Z" transform="translate(-2 -2)" fill="#fff"/></svg>